<svg width="282" height="52" viewBox="0 0 282 52" fill="none" xmlns="http://www.w3.org/2000/svg">
<g clip-path="url(#clip0_1429_2371)">
<mask id="mask0_1429_2371" style="mask-type:luminance" maskUnits="userSpaceOnUse" x="0" y="8" width="36" height="36">
<path d="M0 8H36V44H0V8Z" fill="white"/>
</mask>
<g mask="url(#mask0_1429_2371)">
<mask id="mask1_1429_2371" style="mask-type:luminance" maskUnits="userSpaceOnUse" x="7" y="10" width="22" height="32">
<path d="M7.45312 10.25H28.5469V41.75H7.45312V10.25Z" fill="white"/>
</mask>
<g mask="url(#mask1_1429_2371)">
<path fill-rule="evenodd" clip-rule="evenodd" d="M17.0807 25.5468C19.2151 23.5159 18.5643 21.0046 16.6318 17.9616C14.6995 14.9187 10.8088 13.8366 10.0829 14.5274C9.35689 15.2181 9.19531 20.1559 11.1278 23.1989C13.06 26.2417 14.9462 27.5777 17.0807 25.5468Z" fill="url(#paint0_linear_1429_2371)"/>
<path fill-rule="evenodd" clip-rule="evenodd" d="M18.9259 25.8287C20.5043 28.3141 22.6149 27.4049 25.2277 24.9188C27.8405 22.4327 28.9246 17.6712 28.3878 16.8259C27.8511 15.9806 23.7704 16.0235 21.1576 18.5096C18.5448 20.9957 17.3475 23.3433 18.9259 25.8287Z" fill="url(#paint1_linear_1429_2371)"/>
<path fill-rule="evenodd" clip-rule="evenodd" d="M18.0624 24.4614C20.6831 24.7824 21.7142 22.3634 22.1954 18.4536C22.6765 14.5438 20.6962 10.4117 19.8048 10.3025C18.9135 10.1933 15.9182 13.7158 15.4371 17.6257C14.9559 21.5355 15.4416 24.1402 18.0624 24.4614Z" fill="url(#paint2_linear_1429_2371)"/>
<path fill-rule="evenodd" clip-rule="evenodd" d="M17.4032 41.75C22.8994 41.75 27.3566 40.1555 27.3566 32.9244C27.3566 25.6933 22.8994 19.7595 17.4032 19.7595C11.907 19.7595 7.45312 25.6933 7.45312 32.9244C7.45312 40.1555 11.9069 41.75 17.4032 41.75Z" fill="url(#paint3_linear_1429_2371)"/>
<path d="M22.4304 31.4481C23.2155 31.4481 23.852 31.1525 23.852 30.7877C23.852 30.4229 23.2155 30.1273 22.4304 30.1273C21.6453 30.1273 21.0087 30.4231 21.0087 30.7877C21.0087 31.1525 21.6452 31.4481 22.4304 31.4481ZM11.9021 31.0469C12.6815 31.1425 13.3493 30.9265 13.3937 30.5645C13.4383 30.2026 12.8426 29.8316 12.0634 29.736C11.2839 29.6405 10.6161 29.8565 10.5717 30.2185C10.5272 30.5804 11.1229 30.9514 11.9021 31.0469Z" fill="#EAADCC"/>
<path d="M18.3138 30.5537C17.886 30.9011 17.3917 31.0427 16.8312 30.9787C16.2706 30.9148 15.8551 30.6824 15.5847 30.2815" stroke="black" stroke-width="0.9375" stroke-linecap="round" stroke-linejoin="round"/>
<path fill-rule="evenodd" clip-rule="evenodd" d="M12.808 27.1171C13.2004 27.1034 13.5612 27.2498 13.8273 27.4978C13.964 27.6247 14.0742 27.7774 14.1517 27.9471C14.2291 28.1168 14.2722 28.3002 14.2786 28.4866C14.2853 28.673 14.2551 28.8589 14.1897 29.0336C14.1242 29.2083 14.0249 29.3683 13.8975 29.5045C13.7701 29.641 13.6172 29.751 13.4473 29.8284C13.2774 29.9057 13.094 29.9488 12.9075 29.9552C12.7209 29.9618 12.5348 29.9316 12.3599 29.8663C12.185 29.801 12.0247 29.7018 11.8882 29.5745C11.7515 29.4476 11.6413 29.2948 11.5639 29.1251C11.4865 28.9554 11.4434 28.7721 11.4371 28.5856C11.4303 28.3992 11.4605 28.2133 11.5259 28.0386C11.5913 27.8639 11.6906 27.7038 11.818 27.5676C11.9453 27.4311 12.0982 27.321 12.2681 27.2436C12.438 27.1663 12.6215 27.1233 12.808 27.1171Z" fill="black"/>
<path fill-rule="evenodd" clip-rule="evenodd" d="M12.8826 28.3039C12.8783 28.1813 12.8255 28.0653 12.7357 27.9816C12.646 27.8978 12.5266 27.8532 12.4039 27.8575C12.2812 27.8617 12.1653 27.9146 12.0815 28.0043C11.9978 28.0941 11.9532 28.2135 11.9574 28.3361C11.9596 28.3969 11.9737 28.4566 11.9989 28.5118C12.0242 28.5671 12.06 28.6169 12.1045 28.6583C12.149 28.6997 12.2011 28.7319 12.2581 28.7532C12.315 28.7744 12.3755 28.7842 12.4363 28.7821C12.5588 28.7778 12.6747 28.7251 12.7584 28.6354C12.8421 28.5457 12.8868 28.4265 12.8826 28.3039Z" fill="white"/>
<path fill-rule="evenodd" clip-rule="evenodd" d="M21.4221 27.4774C21.8144 27.4638 22.1751 27.6102 22.4412 27.858C22.5779 27.9849 22.6881 28.1376 22.7656 28.3073C22.843 28.477 22.8861 28.6604 22.8924 28.8468C22.8992 29.0333 22.869 29.2192 22.8036 29.3939C22.7383 29.5686 22.639 29.7286 22.5115 29.8648C22.3842 30.0014 22.2313 30.1116 22.0614 30.1889C21.8914 30.2662 21.7079 30.3092 21.5213 30.3154C21.3348 30.3222 21.1487 30.292 20.9738 30.2267C20.7989 30.1614 20.6387 30.0622 20.5022 29.9347C20.3655 29.8078 20.2553 29.6551 20.1778 29.4854C20.1004 29.3156 20.0573 29.1323 20.051 28.9458C20.0442 28.7595 20.0744 28.5736 20.1398 28.3989C20.2052 28.2242 20.3045 28.0642 20.4319 27.928C20.5592 27.7914 20.7121 27.6813 20.8821 27.604C21.052 27.5266 21.2355 27.4836 21.4221 27.4774Z" fill="black"/>
<path d="M14.0803 28.4934C14.1039 29.1679 13.5757 29.7336 12.9004 29.7571C12.2254 29.7806 11.659 29.2529 11.6354 28.5785C11.6117 27.9041 12.1398 27.3385 12.8149 27.315C13.4901 27.2915 14.0566 27.819 14.0803 28.4934ZM14.4767 28.4796C14.4455 27.5865 13.6952 26.8878 12.801 26.919C11.9069 26.9501 11.2076 27.6992 11.2389 28.5923C11.2703 29.4854 12.0202 30.1841 12.9143 30.1531C13.8086 30.122 14.508 29.3727 14.4767 28.4796ZM22.6942 28.8538C22.7179 29.5283 22.1898 30.094 21.5147 30.1175C20.8395 30.141 20.273 29.6134 20.2493 28.9389C20.2257 28.2645 20.7539 27.6987 21.429 27.6753C22.1042 27.6518 22.6706 28.1794 22.6942 28.8538ZM23.0908 28.8401C23.0594 27.9469 22.3094 27.2482 21.4151 27.2793C20.521 27.3105 19.8216 28.0596 19.8529 28.9527C19.8841 29.8458 20.6344 30.5446 21.5285 30.5135C22.4227 30.4823 23.122 29.7332 23.0908 28.8401Z" fill="white" stroke="white" stroke-width="0.46875"/>
<path fill-rule="evenodd" clip-rule="evenodd" d="M21.4967 28.6645C21.4923 28.5419 21.4395 28.426 21.3497 28.3424C21.2599 28.2588 21.1406 28.2142 21.018 28.2186C20.9566 28.2196 20.8961 28.2329 20.8399 28.2577C20.7837 28.2824 20.733 28.3181 20.6908 28.3626C20.6485 28.4072 20.6156 28.4597 20.5938 28.5171C20.5721 28.5745 20.562 28.6357 20.5641 28.697C20.5663 28.7584 20.5806 28.8187 20.6063 28.8744C20.632 28.9302 20.6686 28.9803 20.7138 29.0217C20.7591 29.0632 20.8122 29.0953 20.8699 29.116C20.9277 29.1368 20.989 29.1458 21.0504 29.1426C21.1729 29.1383 21.2888 29.0856 21.3725 28.9959C21.4562 28.9063 21.5009 28.7871 21.4967 28.6645Z" fill="white"/>
<path d="M9.8667 33.5942L14.7599 38.6791M14.0987 34.1885L10.9909 37.4905M24.877 33.5942L19.9838 38.6791M20.645 34.1885L23.7529 37.4905" stroke="#ECB732" stroke-width="1.71875" stroke-linecap="round"/>
<path d="M19.3887 22.3679L16.1485 25.6037M18.7274 25.6037L15.4873 22.3679" stroke="#FFC73B" stroke-width="1.71875" stroke-linecap="round"/>
</g>
</g>
</g>
<path d="M81.4215 36.1251H93.1316C93.5029 36.1251 93.8685 36.0261 94.1914 35.8394C94.5138 35.6506 94.781 35.3806 94.9665 35.0564C95.153 34.7311 95.2512 34.3626 95.2512 33.9876C95.2512 33.6126 95.153 33.2442 94.9665 32.9189L87.1005 19.1781C86.9176 18.8524 86.6513 18.5813 86.3289 18.3926C86.0066 18.2039 85.6398 18.1044 85.2662 18.1044C84.8927 18.1044 84.5259 18.2039 84.2035 18.3926C83.8811 18.5813 83.6148 18.8524 83.4319 19.1781L81.4204 22.6937L77.4896 15.8189C77.3066 15.4932 77.0402 15.2221 76.7177 15.0335C76.3952 14.8448 76.0284 14.7454 75.6548 14.7454C75.2812 14.7454 74.9143 14.8448 74.5919 15.0335C74.2694 15.2221 74.003 15.4932 73.8199 15.8189L64.0324 32.9189C63.7516 33.4097 63.6756 33.9915 63.8209 34.538C63.9663 35.0845 64.3211 35.5517 64.8086 35.8382C65.1304 36.0261 65.4949 36.1251 65.8673 36.1251H73.218C76.1306 36.1251 78.2783 34.8347 79.7554 32.317L83.3441 26.0485L85.2656 22.6937L91.0335 32.7704H83.3441L81.4215 36.1251ZM73.0988 32.767L67.9688 32.7659L75.6593 19.3311L79.4955 26.0474L76.9271 30.5384C75.945 32.1719 74.8301 32.767 73.0988 32.767Z" fill="#00DC82"/>
<path d="M156.62 14.9141L141.835 41.3516C141.765 41.4759 141.664 41.5796 141.541 41.6519C141.419 41.7243 141.279 41.7627 141.137 41.7632C140.994 41.7638 140.854 41.7265 140.731 41.6552C140.608 41.5838 140.506 41.481 140.435 41.3572L125.358 14.9163C125.282 14.7837 125.246 14.6321 125.253 14.4795C125.26 14.3269 125.311 14.1795 125.399 14.0547C125.487 13.9298 125.609 13.8327 125.751 13.7747C125.892 13.7167 126.047 13.7002 126.197 13.7272L140.998 16.3732C141.092 16.3905 141.188 16.3905 141.282 16.3732L155.774 13.7317C155.923 13.7043 156.078 13.7201 156.219 13.7772C156.36 13.8343 156.482 13.9304 156.571 14.0542C156.66 14.178 156.711 14.3245 156.72 14.4765C156.728 14.6286 156.694 14.7811 156.62 14.9141Z" fill="url(#paint4_linear_1429_2371)"/>
<path d="M148.047 10.2578L137.108 12.4009C137.02 12.4185 136.941 12.4645 136.883 12.5316C136.824 12.5987 136.789 12.6832 136.784 12.7721L136.111 24.1391C136.107 24.2015 136.118 24.2639 136.143 24.3213C136.167 24.3787 136.205 24.4296 136.253 24.4699C136.3 24.5102 136.357 24.5388 136.418 24.5535C136.478 24.5681 136.542 24.5684 136.602 24.5543L139.648 23.8511C139.713 23.836 139.782 23.8376 139.847 23.8557C139.911 23.8739 139.971 23.9081 140.019 23.9551C140.067 24.0022 140.103 24.0606 140.122 24.125C140.142 24.1894 140.145 24.2577 140.132 24.3236L139.227 28.755C139.213 28.8232 139.217 28.8939 139.239 28.9601C139.26 29.0263 139.299 29.0858 139.35 29.1326C139.402 29.1795 139.465 29.2121 139.533 29.2274C139.6 29.2426 139.671 29.24 139.738 29.2196L141.619 28.6481C141.686 28.6277 141.756 28.625 141.824 28.6404C141.893 28.6557 141.955 28.6884 142.007 28.7354C142.059 28.7824 142.097 28.8421 142.118 28.9084C142.14 28.9748 142.144 29.0456 142.13 29.1139L140.691 36.0743C140.601 36.5096 141.18 36.747 141.422 36.3746L141.583 36.1249L150.498 18.333C150.532 18.266 150.546 18.1909 150.539 18.1163C150.532 18.0417 150.504 17.9705 150.459 17.9109C150.414 17.8512 150.353 17.8053 150.283 17.7786C150.213 17.7518 150.137 17.7451 150.063 17.7593L146.928 18.3634C146.86 18.3763 146.791 18.3717 146.725 18.35C146.66 18.3283 146.602 18.2902 146.555 18.2394C146.509 18.1886 146.477 18.1268 146.461 18.0599C146.445 17.993 146.447 17.9231 146.466 17.8571L148.512 10.7629C148.531 10.6967 148.533 10.6266 148.517 10.5595C148.502 10.4923 148.469 10.4303 148.422 10.3794C148.376 10.3286 148.317 10.2906 148.251 10.2691C148.186 10.2475 148.116 10.2433 148.048 10.2566" fill="url(#paint5_linear_1429_2371)"/>
<path d="M202.866 17.6791L195.986 29.5973L202.5 40.8856L211.126 25.9427L219.75 11.0005H206.719L202.866 17.6791Z" fill="#1697F6"/>
<path d="M193.877 25.943L194.328 26.7286L200.763 15.5773L203.408 11.0005H185.25L193.877 25.943Z" fill="#AEDDFF"/>
<path d="M206.719 11.0005C209.98 21.7307 202.5 40.8856 202.5 40.8856L195.986 29.597L206.719 11.0005Z" fill="#1867C0"/>
<path d="M203.408 11.0005C189.67 11.0005 194.328 26.7286 194.328 26.7286L203.408 11.0005Z" fill="#7BC6FF"/>
<g clip-path="url(#clip1_1429_2371)">
<path d="M252.376 21.2188H280.408V41.9384H252.376V21.2188Z" fill="white"/>
<path d="M246.422 25.9746V43.5527H281.578V8.39648H246.422V25.9746ZM274.752 24.5684C275.594 24.7638 276.36 25.2042 276.952 25.834C277.277 26.1733 277.561 26.5511 277.795 26.959C277.795 27.004 276.277 28.0305 275.351 28.6043C275.318 28.6268 275.183 28.4805 275.033 28.2584C274.865 27.9669 274.625 27.723 274.336 27.5494C274.047 27.3757 273.719 27.2781 273.383 27.2655C272.317 27.1924 271.63 27.7521 271.636 28.6718C271.627 28.9007 271.68 29.1279 271.788 29.3299C272.021 29.8165 272.457 30.1062 273.824 30.6968C276.341 31.7796 277.418 32.494 278.088 33.5093C278.836 34.6343 279.002 36.4512 278.496 37.7955C277.933 39.258 276.555 40.2509 274.606 40.5799C273.716 40.6819 272.816 40.6725 271.928 40.5518C270.568 40.3275 269.314 39.6741 268.351 38.6871C268.028 38.3299 267.398 37.399 267.437 37.3315C267.539 37.255 267.647 37.1863 267.76 37.1262L269.062 36.4062L270.072 35.8212L270.283 36.1334C270.639 36.6425 271.092 37.0764 271.616 37.4102C272.741 38.0009 274.277 37.9193 275.036 37.2359C275.291 36.9854 275.45 36.6535 275.486 36.2979C275.521 35.9423 275.431 35.5855 275.23 35.2896C274.949 34.8987 274.387 34.5696 272.814 33.8834C271 33.1015 270.218 32.6177 269.504 31.8471C269.058 31.3385 268.729 30.7385 268.539 30.0893C268.398 29.3475 268.377 28.5878 268.477 27.8393C268.852 26.0871 270.165 24.8637 272.083 24.5009C272.971 24.3911 273.871 24.4158 274.752 24.574V24.5684ZM266.5 26.0421V27.4821H261.936V40.4843H258.698V27.4793H254.122V26.073C254.108 25.5881 254.119 25.1027 254.156 24.619C254.179 24.5937 256.969 24.5937 260.344 24.5937H266.483L266.5 26.0421Z" fill="#007ACC"/>
</g>
<defs>
<linearGradient id="paint0_linear_1429_2371" x1="1075.89" y1="-817.107" x2="1957.77" y2="1652.72" gradientUnits="userSpaceOnUse">
<stop stop-color="#52CE63"/>
<stop offset="1" stop-color="#51A256"/>
</linearGradient>
<linearGradient id="paint1_linear_1429_2371" x1="862.255" y1="1082.76" x2="-1610.11" y2="1966.78" gradientUnits="userSpaceOnUse">
<stop stop-color="#52CE63"/>
<stop offset="1" stop-color="#51A256"/>
</linearGradient>
<linearGradient id="paint2_linear_1429_2371" x1="1094.34" y1="141.941" x2="607.709" y2="4114.18" gradientUnits="userSpaceOnUse">
<stop stop-color="#8AE99C"/>
<stop offset="1" stop-color="#52CE63"/>
</linearGradient>
<linearGradient id="paint3_linear_1429_2371" x1="3269.53" y1="1852.54" x2="2743.4" y2="10503.5" gradientUnits="userSpaceOnUse">
<stop stop-color="#FFE56C"/>
<stop offset="1" stop-color="#FFC63A"/>
</linearGradient>
<linearGradient id="paint4_linear_1429_2371" x1="124.99" y1="12.7821" x2="143.389" y2="37.7701" gradientUnits="userSpaceOnUse">
<stop stop-color="#41D1FF"/>
<stop offset="1" stop-color="#BD34FE"/>
</linearGradient>
<linearGradient id="paint5_linear_1429_2371" x1="140.147" y1="10.8392" x2="143.476" y2="33.6716" gradientUnits="userSpaceOnUse">
<stop stop-color="#FFEA83"/>
<stop offset="0.083" stop-color="#FFDD35"/>
<stop offset="1" stop-color="#FFA800"/>
</linearGradient>
<clipPath id="clip0_1429_2371">
<rect width="36" height="36" fill="white" transform="translate(0 8)"/>
</clipPath>
<clipPath id="clip1_1429_2371">
<rect width="36" height="36" fill="white" transform="translate(246 8)"/>
</clipPath>
</defs>
</svg>
